<svg width="158" height="92" viewBox="0 0 158 92" fill="none" xmlns="http://www.w3.org/2000/svg">
<rect width="158" height="30" fill="currentColor" fill-opacity="0.01"/>
<rect width="30" height="32" transform="translate(0 30)" fill="currentColor" fill-opacity="0.01"/>
<path d="M30.7 46C30.7 50.14 33.78 53.2 37.96 53.2C40.12 53.2 42.2 52.14 43.4 50.6L41.98 49.32C41.2 50.26 39.84 51.3 37.96 51.3C34.98 51.3 32.7 49.16 32.7 46C32.7 42.98 34.92 40.7 37.78 40.7C39.28 40.7 40.74 41.38 41.56 42.28L42.9 40.96C41.68 39.62 39.78 38.8 37.78 38.8C33.74 38.8 30.7 41.96 30.7 46ZM45.5086 53H47.4086V38.8H45.5086V53ZM50.0016 48.3C50.0016 51.1 52.0816 53.2 54.8616 53.2C57.6416 53.2 59.7216 51.1 59.7216 48.3C59.7216 45.5 57.6416 43.4 54.8616 43.4C52.0816 43.4 50.0016 45.5 50.0016 48.3ZM51.9016 48.3C51.9016 46.58 53.1216 45.2 54.8616 45.2C56.6016 45.2 57.8216 46.58 57.8216 48.3C57.8216 50.02 56.6016 51.4 54.8616 51.4C53.1216 51.4 51.9016 50.02 51.9016 48.3ZM61.425 51.9C62.465 52.74 63.725 53.2 65.225 53.2C67.065 53.2 68.725 52.1 68.725 50.32C68.725 48.38 66.785 47.72 65.305 47.34C64.365 47.1 63.625 46.88 63.625 46.24C63.625 45.5 64.405 45.06 65.325 45.06C66.085 45.06 66.765 45.36 67.345 45.8L68.325 44.44C67.585 43.84 66.585 43.4 65.205 43.4C63.525 43.4 61.725 44.32 61.725 46.34C61.725 47.66 62.745 48.38 63.885 48.76C65.265 49.22 66.825 49.28 66.825 50.36C66.825 51.1 66.005 51.54 65.185 51.54C64.245 51.54 63.285 51.18 62.405 50.5L61.425 51.9ZM79.7066 48.7C79.7266 48.52 79.7266 48.38 79.7266 48.3C79.7266 45.52 77.8266 43.4 75.2066 43.4C72.5466 43.4 70.6266 45.48 70.6266 48.3C70.6266 51.12 72.7466 53.2 75.4866 53.2C77.4066 53.2 78.7466 52.34 79.4466 51.44L78.2066 50.26C77.6666 50.86 76.9066 51.54 75.5066 51.54C73.8666 51.54 72.5666 50.28 72.4666 48.7H79.7066ZM75.2666 45.06C76.3866 45.06 77.4666 45.9 77.7466 47.1H72.6266C72.9466 45.88 74.0466 45.06 75.2666 45.06Z" fill="currentColor"/>
<rect width="15" height="32" transform="translate(81 30)" fill="currentColor" fill-opacity="0.01"/>
<g clip-path="url(#clip0_367_3480)">
<path d="M111.996 48.7487L125.249 61.9892L128 59.2405L114.747 46L111.996 48.7487ZM96 59.2513L98.7511 62L112.003 48.7595L109.252 46.0108L96 59.2513Z" fill="currentColor"/>
<path d="M111.996 43.2513L125.249 30.0108L128 32.7595L114.747 46L111.996 43.2513ZM96 32.7487L98.7511 30L112.003 43.2405L109.252 45.9892L96 32.7487Z" fill="currentColor"/>
</g>
<rect width="30" height="32" transform="translate(128 30)" fill="currentColor" fill-opacity="0.01"/>
<rect width="158" height="30" transform="translate(0 62)" fill="currentColor" fill-opacity="0.01"/>
<defs>
<clipPath id="clip0_367_3480">
<rect width="32" height="32" fill="white" transform="translate(96 30)"/>
</clipPath>
</defs>
</svg>
